<?xml version="1.0" encoding="UTF-8"?><svg xmlns="http://www.w3.org/2000/svg" xmlns:xlink="http://www.w3.org/1999/xlink" stroke-dasharray="none" shape-rendering="auto" font-family="'Dialog'" width="1135" text-rendering="auto" fill-opacity="1" contentScriptType="text/ecmascript" color-interpolation="auto" color-rendering="auto" preserveAspectRatio="xMidYMid meet" font-size="12" fill="black" stroke="black" image-rendering="auto" stroke-miterlimit="10" zoomAndPan="magnify" version="1.0" stroke-linecap="square" stroke-linejoin="miter" contentStyleType="text/css" font-style="normal" height="262" stroke-width="1" stroke-dashoffset="0" font-weight="normal" stroke-opacity="1">
  <!--Generated by the Batik Graphics2D SVG Generator-->
  <defs id="genericDefs"/>
  <g>
    <defs id="defs1">
      <clipPath clipPathUnits="userSpaceOnUse" id="clipPath1">
        <path d="M0 0 L1135.2 0 L1135.2 262 L0 262 L0 0 Z"/>
      </clipPath>
      <clipPath clipPathUnits="userSpaceOnUse" id="clipPath2">
        <path d="M277.5 65 L-857.7 65 L-857.7 -197 L277.5 -197 L277.5 65 Z"/>
      </clipPath>
      <clipPath clipPathUnits="userSpaceOnUse" id="clipPath3">
        <path d="M691.2 65 L-444 65 L-444 -197 L691.2 -197 L691.2 65 Z"/>
      </clipPath>
      <clipPath clipPathUnits="userSpaceOnUse" id="clipPath4">
        <path d="M842.2 73 L-293 73 L-293 -189 L842.2 -189 L842.2 73 Z"/>
      </clipPath>
      <clipPath clipPathUnits="userSpaceOnUse" id="clipPath5">
        <path d="M994.2 73 L-141 73 L-141 -189 L994.2 -189 L994.2 73 Z"/>
      </clipPath>
      <clipPath clipPathUnits="userSpaceOnUse" id="clipPath6">
        <path d="M584.4 162 L-550.8 162 L-550.8 -100 L584.4 -100 L584.4 162 Z"/>
      </clipPath>
      <clipPath clipPathUnits="userSpaceOnUse" id="clipPath7">
        <path d="M691.2 81 L-444 81 L-444 -181 L691.2 -181 L691.2 81 Z"/>
      </clipPath>
      <clipPath clipPathUnits="userSpaceOnUse" id="clipPath8">
        <path d="M277.5 243 L-857.7 243 L-857.7 -19 L277.5 -19 L277.5 243 Z"/>
      </clipPath>
      <clipPath clipPathUnits="userSpaceOnUse" id="clipPath9">
        <path d="M433.4 170 L-701.8 170 L-701.8 -92 L433.4 -92 L433.4 170 Z"/>
      </clipPath>
      <clipPath clipPathUnits="userSpaceOnUse" id="clipPath10">
        <path d="M305.5 154 L-829.7 154 L-829.7 -108 L305.5 -108 L305.5 154 Z"/>
      </clipPath>
      <clipPath clipPathUnits="userSpaceOnUse" id="clipPath11">
        <path d="M433.4 154 L-701.8 154 L-701.8 -108 L433.4 -108 L433.4 154 Z"/>
      </clipPath>
      <clipPath clipPathUnits="userSpaceOnUse" id="clipPath12">
        <path d="M-9.0604 -2.875 L14.5896 -2.875 L14.5896 2.5833 L-9.0604 2.5833 L-9.0604 -2.875 Z"/>
      </clipPath>
      <clipPath clipPathUnits="userSpaceOnUse" id="clipPath13">
        <path d="M-0 0 L-0 17 L17 17 L17 0 Z"/>
      </clipPath>
      <clipPath clipPathUnits="userSpaceOnUse" id="clipPath14">
        <path d="M-14.4312 -1.0208 L9.2187 -1.0208 L9.2187 4.4375 L-14.4312 4.4375 L-14.4312 -1.0208 Z"/>
      </clipPath>
      <clipPath clipPathUnits="userSpaceOnUse" id="clipPath15">
        <path d="M0 0 L0 17 L17 17 L17 0 Z"/>
      </clipPath>
      <clipPath clipPathUnits="userSpaceOnUse" id="clipPath16">
        <path d="M-2.5781 -2.8347 L32.8969 -2.8347 L32.8969 5.1442 L-2.5781 5.1442 L-2.5781 -2.8347 Z"/>
      </clipPath>
      <clipPath clipPathUnits="userSpaceOnUse" id="clipPath17">
        <path d="M0 -3.1 L0 14.1 L17.2 14.1 L17.2 -3.1 Z"/>
      </clipPath>
      <clipPath clipPathUnits="userSpaceOnUse" id="clipPath18">
        <path d="M-2.5781 -6.9003 L32.8969 -6.9003 L32.8969 1.0786 L-2.5781 1.0786 L-2.5781 -6.9003 Z"/>
      </clipPath>
      <clipPath clipPathUnits="userSpaceOnUse" id="clipPath19">
        <path d="M-31.1156 -1.7231 L4.3594 -1.7231 L4.3594 6.2558 L-31.1156 6.2558 L-31.1156 -1.7231 Z"/>
      </clipPath>
      <clipPath clipPathUnits="userSpaceOnUse" id="clipPath20">
        <path d="M-9.4098 -1.6667 L29.9947 -1.6667 L29.9947 7.0667 L-9.4098 7.0667 L-9.4098 -1.6667 Z"/>
      </clipPath>
      <clipPath clipPathUnits="userSpaceOnUse" id="clipPath21">
        <path d="M-4.385 0 L-4.385 16 L11.615 16 L11.615 0 Z"/>
      </clipPath>
      <clipPath clipPathUnits="userSpaceOnUse" id="clipPath22">
        <path d="M-0.27 18.045 L15.73 18.045 L15.73 2.045 L-0.27 2.045 Z"/>
      </clipPath>
      <clipPath clipPathUnits="userSpaceOnUse" id="clipPath23">
        <path d="M-2.34 20.115 L13.66 20.115 L13.66 4.115 L-2.34 4.115 Z"/>
      </clipPath>
      <clipPath clipPathUnits="userSpaceOnUse" id="clipPath24">
        <path d="M-6.43 11.885 L9.57 11.885 L9.57 -4.115 L-6.43 -4.115 Z"/>
      </clipPath>
      <clipPath clipPathUnits="userSpaceOnUse" id="clipPath25">
        <path d="M-8.5 13.955 L7.5 13.955 L7.5 -2.045 L-8.5 -2.045 Z"/>
      </clipPath>
      <clipPath clipPathUnits="userSpaceOnUse" id="clipPath26">
        <path d="M11.615 16 L11.615 0 L-4.385 0 L-4.385 16 Z"/>
      </clipPath>
      <clipPath clipPathUnits="userSpaceOnUse" id="clipPath27">
        <path d="M-20.0628 -4.9 L19.3417 -4.9 L19.3417 3.8333 L-20.0628 3.8333 L-20.0628 -4.9 Z"/>
      </clipPath>
      <clipPath clipPathUnits="userSpaceOnUse" id="clipPath28">
        <path d="M-29.0114 -1.9333 L10.3931 -1.9333 L10.3931 6.8 L-29.0114 6.8 L-29.0114 -1.9333 Z"/>
      </clipPath>
      <clipPath clipPathUnits="userSpaceOnUse" id="clipPath29">
        <path d="M-10.3818 -4.6333 L29.0228 -4.6333 L29.0228 4.1 L-10.3818 4.1 L-10.3818 -4.6333 Z"/>
      </clipPath>
      <clipPath clipPathUnits="userSpaceOnUse" id="clipPath30">
        <path d="M-4.385 -0 L-4.385 16 L11.615 16 L11.615 -0 Z"/>
      </clipPath>
      <clipPath clipPathUnits="userSpaceOnUse" id="clipPath31">
        <path d="M-9.4098 -7.6 L29.9947 -7.6 L29.9947 1.1333 L-9.4098 1.1333 L-9.4098 -7.6 Z"/>
      </clipPath>
      <clipPath clipPathUnits="userSpaceOnUse" id="clipPath32">
        <path d="M-432.9 -110 L702.2999 -110 L702.2999 152 L-432.9 152 L-432.9 -110 Z"/>
      </clipPath>
      <clipPath clipPathUnits="userSpaceOnUse" id="clipPath33">
        <path d="M-0 0 L-0 24 L48 24 L48 0 Z"/>
      </clipPath>
      <clipPath clipPathUnits="userSpaceOnUse" id="clipPath34">
        <path d="M-409.9 -186 L725.2999 -186 L725.2999 76 L-409.9 76 L-409.9 -186 Z"/>
      </clipPath>
      <clipPath clipPathUnits="userSpaceOnUse" id="clipPath35">
        <path d="M-0 0 L-0 24 L94 24 L94 0 Z"/>
      </clipPath>
      <clipPath clipPathUnits="userSpaceOnUse" id="clipPath36">
        <path d="M-670.7 -21 L464.4999 -21 L464.4999 241 L-670.7 241 L-670.7 -21 Z"/>
      </clipPath>
      <clipPath clipPathUnits="userSpaceOnUse" id="clipPath37">
        <path d="M0 0 L0 24 L88 24 L88 0 Z"/>
      </clipPath>
      <clipPath clipPathUnits="userSpaceOnUse" id="clipPath38">
        <path d="M-647.7 -97 L487.4999 -97 L487.4999 165 L-647.7 165 L-647.7 -97 Z"/>
      </clipPath>
      <clipPath clipPathUnits="userSpaceOnUse" id="clipPath39">
        <path d="M0 0 L0 24 L134 24 L134 0 Z"/>
      </clipPath>
      <clipPath clipPathUnits="userSpaceOnUse" id="clipPath40">
        <path d="M0 -71 L1135.2 -71 L1135.2 191 L0 191 L0 -71 Z"/>
      </clipPath>
      <clipPath clipPathUnits="userSpaceOnUse" id="clipPath41">
        <path d="M0 0 L0 24 L193 24 L193 0 Z"/>
      </clipPath>
      <clipPath clipPathUnits="userSpaceOnUse" id="clipPath42">
        <path d="M0 -204.5 L1135.2 -204.5 L1135.2 57.5 L0 57.5 L0 -204.5 Z"/>
      </clipPath>
      <clipPath clipPathUnits="userSpaceOnUse" id="clipPath43">
        <path d="M-888.2 -34.5 L247 -34.5 L247 227.5 L-888.2 227.5 L-888.2 -34.5 Z"/>
      </clipPath>
      <clipPath clipPathUnits="userSpaceOnUse" id="clipPath44">
        <path d="M0 0 L0 24 L243 24 L243 0 Z"/>
      </clipPath>
      <clipPath clipPathUnits="userSpaceOnUse" id="clipPath45">
        <path d="M-254.5 0 L880.7 0 L880.7 262 L-254.5 262 L-254.5 0 Z"/>
      </clipPath>
      <clipPath clipPathUnits="userSpaceOnUse" id="clipPath46">
        <path d="M0 0 L0 46 L58 46 L58 0 Z"/>
      </clipPath>
      <clipPath clipPathUnits="userSpaceOnUse" id="clipPath47">
        <path d="M-561.4 -97 L573.7999 -97 L573.7999 165 L-561.4 165 L-561.4 -97 Z"/>
      </clipPath>
      <clipPath clipPathUnits="userSpaceOnUse" id="clipPath48">
        <path d="M-822.2 -8 L312.9999 -8 L312.9999 254 L-822.2 254 L-822.2 -8 Z"/>
      </clipPath>
      <clipPath clipPathUnits="userSpaceOnUse" id="clipPath49">
        <path d="M0 0 L0 46 L52 46 L52 0 Z"/>
      </clipPath>
      <clipPath clipPathUnits="userSpaceOnUse" id="clipPath50">
        <path d="M-282.5 -89 L852.7 -89 L852.7 173 L-282.5 173 L-282.5 -89 Z"/>
      </clipPath>
      <clipPath clipPathUnits="userSpaceOnUse" id="clipPath51">
        <path d="M-254.5 -178 L880.7 -178 L880.7 84 L-254.5 84 L-254.5 -178 Z"/>
      </clipPath>
      <clipPath clipPathUnits="userSpaceOnUse" id="clipPath52">
        <path d="M-397.9 -137.8 L737.2999 -137.8 L737.2999 124.2 L-397.9 124.2 L-397.9 -137.8 Z"/>
      </clipPath>
      <clipPath clipPathUnits="userSpaceOnUse" id="clipPath53">
        <path d="M-397.9 -153.8 L737.2999 -153.8 L737.2999 108.2 L-397.9 108.2 L-397.9 -153.8 Z"/>
      </clipPath>
      <clipPath clipPathUnits="userSpaceOnUse" id="clipPath54">
        <path d="M-485.9 -146.8 L649.2999 -146.8 L649.2999 115.2 L-485.9 115.2 L-485.9 -146.8 Z"/>
      </clipPath>
      <clipPath clipPathUnits="userSpaceOnUse" id="clipPath55">
        <path d="M-655.7 -48.8 L479.4999 -48.8 L479.4999 213.2 L-655.7 213.2 L-655.7 -48.8 Z"/>
      </clipPath>
      <clipPath clipPathUnits="userSpaceOnUse" id="clipPath56">
        <path d="M-655.7 -64.8 L479.4999 -64.8 L479.4999 197.2 L-655.7 197.2 L-655.7 -64.8 Z"/>
      </clipPath>
      <clipPath clipPathUnits="userSpaceOnUse" id="clipPath57">
        <path d="M-743.7 -57.8 L391.4999 -57.8 L391.4999 204.2 L-743.7 204.2 L-743.7 -57.8 Z"/>
      </clipPath>
      <clipPath clipPathUnits="userSpaceOnUse" id="clipPath58">
        <path d="M-117.5 -94.3 L1017.7 -94.3 L1017.7 167.7 L-117.5 167.7 L-117.5 -94.3 Z"/>
      </clipPath>
      <clipPath clipPathUnits="userSpaceOnUse" id="clipPath59">
        <path d="M-117.5 -227.8 L1017.7 -227.8 L1017.7 34.2 L-117.5 34.2 L-117.5 -227.8 Z"/>
      </clipPath>
      <clipPath clipPathUnits="userSpaceOnUse" id="clipPath60">
        <path d="M-946.7 -56.8 L188.5 -56.8 L188.5 205.2 L-946.7 205.2 L-946.7 -56.8 Z"/>
      </clipPath>
      <clipPath clipPathUnits="userSpaceOnUse" id="clipPath61">
        <path d="M-228 -66 L907.2 -66 L907.2 196 L-228 196 L-228 -66 Z"/>
      </clipPath>
      <clipPath clipPathUnits="userSpaceOnUse" id="clipPath62">
        <path d="M-295 -66 L840.2 -66 L840.2 196 L-295 196 L-295 -66 Z"/>
      </clipPath>
      <clipPath clipPathUnits="userSpaceOnUse" id="clipPath63">
        <path d="M-529.9 -163 L605.2999 -163 L605.2999 99 L-529.9 99 L-529.9 -163 Z"/>
      </clipPath>
      <clipPath clipPathUnits="userSpaceOnUse" id="clipPath64">
        <path d="M-601.9 -163 L533.2999 -163 L533.2999 99 L-601.9 99 L-601.9 -163 Z"/>
      </clipPath>
      <clipPath clipPathUnits="userSpaceOnUse" id="clipPath65">
        <path d="M-787.7 -74 L347.4999 -74 L347.4999 188 L-787.7 188 L-787.7 -74 Z"/>
      </clipPath>
      <clipPath clipPathUnits="userSpaceOnUse" id="clipPath66">
        <path d="M-859.7 -74 L275.4999 -74 L275.4999 188 L-859.7 188 L-859.7 -74 Z"/>
      </clipPath>
      <clipPath clipPathUnits="userSpaceOnUse" id="clipPath67">
        <path d="M-256 -155 L879.2 -155 L879.2 107 L-256 107 L-256 -155 Z"/>
      </clipPath>
      <clipPath clipPathUnits="userSpaceOnUse" id="clipPath68">
        <path d="M-323 -155 L812.2 -155 L812.2 107 L-323 107 L-323 -155 Z"/>
      </clipPath>
      <clipPath clipPathUnits="userSpaceOnUse" id="clipPath69">
        <path d="M-228 -244 L907.2 -244 L907.2 18 L-228 18 L-228 -244 Z"/>
      </clipPath>
      <clipPath clipPathUnits="userSpaceOnUse" id="clipPath70">
        <path d="M-295 -244 L840.2 -244 L840.2 18 L-295 18 L-295 -244 Z"/>
      </clipPath>
    </defs>
    <g fill="white" text-rendering="geometricPrecision" stroke="white">
      <rect x="0" width="1135" height="262" y="0" stroke="none"/>
      <path fill="none" d="M114.5 109.5 L195.5 109.5 Q208 109.5 213.1242 98.0986 L222.8758 76.4014 Q228 65 240.5 65 L272 65" clip-path="url(#clipPath1)" stroke-linecap="butt" stroke="black"/>
      <path fill="black" d="M5.5 0 L8.5 3 L0 0 L8.5 -3 Z" clip-path="url(#clipPath2)" transform="matrix(-1,0,0,-1,277.5,65)" stroke="none"/>
      <path fill="none" d="M5.5 0 L8.5 3 L0 0 L8.5 -3 Z" clip-path="url(#clipPath2)" transform="matrix(-1,0,0,-1,277.5,65)" stroke-linecap="butt" stroke="black"/>
    </g>
    <g stroke-linecap="butt" text-rendering="geometricPrecision">
      <path fill="none" d="M292 65 L685.7 65" clip-path="url(#clipPath1)"/>
      <path d="M5.5 0 L8.5 3 L0 0 L8.5 -3 Z" clip-path="url(#clipPath3)" transform="matrix(-1,0,0,-1,691.2,65)" stroke-linecap="square" stroke="none"/>
      <path fill="none" d="M5.5 0 L8.5 3 L0 0 L8.5 -3 Z" clip-path="url(#clipPath3)" transform="matrix(-1,0,0,-1,691.2,65)"/>
    </g>
    <g stroke-linecap="butt" text-rendering="geometricPrecision">
      <path fill="none" d="M740.7 73 L836.7 73" clip-path="url(#clipPath1)"/>
      <path d="M5.5 0 L8.5 3 L0 0 L8.5 -3 Z" clip-path="url(#clipPath4)" transform="matrix(-1,0,0,-1,842.2,73)" stroke-linecap="square" stroke="none"/>
      <path fill="none" d="M5.5 0 L8.5 3 L0 0 L8.5 -3 Z" clip-path="url(#clipPath4)" transform="matrix(-1,0,0,-1,842.2,73)"/>
    </g>
    <g stroke-linecap="butt" text-rendering="geometricPrecision">
      <path fill="none" d="M856.7 73 L988.7 73" clip-path="url(#clipPath1)"/>
      <path d="M5.5 0 L8.5 3 L0 0 L8.5 -3 Z" clip-path="url(#clipPath5)" transform="matrix(-1,0,0,-1,994.2,73)" stroke-linecap="square" stroke="none"/>
      <path fill="none" d="M5.5 0 L8.5 3 L0 0 L8.5 -3 Z" clip-path="url(#clipPath5)" transform="matrix(-1,0,0,-1,994.2,73)"/>
    </g>
    <g stroke-linecap="butt" text-rendering="geometricPrecision">
      <path fill="none" d="M482.9 162 L578.9 162" clip-path="url(#clipPath1)"/>
      <path d="M5.5 0 L8.5 3 L0 0 L8.5 -3 Z" clip-path="url(#clipPath6)" transform="matrix(-1,0,0,-1,584.4,162)" stroke-linecap="square" stroke="none"/>
      <path fill="none" d="M5.5 0 L8.5 3 L0 0 L8.5 -3 Z" clip-path="url(#clipPath6)" transform="matrix(-1,0,0,-1,584.4,162)"/>
    </g>
    <g stroke-linecap="butt" text-rendering="geometricPrecision">
      <path fill="none" d="M598.9 162 L611.15 162 Q623.4 162 626.9918 150.0272 L644.1082 92.9728 Q647.7 81 660.2 81 L685.7 81" clip-path="url(#clipPath1)"/>
      <path d="M5.5 0 L8.5 3 L0 0 L8.5 -3 Z" clip-path="url(#clipPath7)" transform="matrix(-1,0,0,-1,691.2,81)" stroke-linecap="square" stroke="none"/>
      <path fill="none" d="M5.5 0 L8.5 3 L0 0 L8.5 -3 Z" clip-path="url(#clipPath7)" transform="matrix(-1,0,0,-1,691.2,81)"/>
    </g>
    <g stroke-linecap="butt" text-rendering="geometricPrecision">
      <path fill="none" d="M114.5 243 L272 243" clip-path="url(#clipPath1)"/>
      <path d="M5.5 0 L8.5 3 L0 0 L8.5 -3 Z" clip-path="url(#clipPath8)" transform="matrix(-1,0,0,-1,277.5,243)" stroke-linecap="square" stroke="none"/>
      <path fill="none" d="M5.5 0 L8.5 3 L0 0 L8.5 -3 Z" clip-path="url(#clipPath8)" transform="matrix(-1,0,0,-1,277.5,243)"/>
    </g>
    <g stroke-linecap="butt" text-rendering="geometricPrecision">
      <path fill="none" d="M292 243 L363.5 243 Q376 243 379.5919 231.0272 L394.3082 181.9728 Q397.9 170 410.4 170 L427.9 170" clip-path="url(#clipPath1)"/>
      <path d="M5.5 0 L8.5 3 L0 0 L8.5 -3 Z" clip-path="url(#clipPath9)" transform="matrix(-1,0,0,-1,433.4,170)" stroke-linecap="square" stroke="none"/>
      <path fill="none" d="M5.5 0 L8.5 3 L0 0 L8.5 -3 Z" clip-path="url(#clipPath9)" transform="matrix(-1,0,0,-1,433.4,170)"/>
    </g>
    <g stroke-linecap="butt" text-rendering="geometricPrecision">
      <path fill="none" d="M114.5 109.5 L195.5 109.5 Q208 109.5 218.7314 115.91 L271.7686 147.59 Q282.5 154 291.25 154 L300 154" clip-path="url(#clipPath1)"/>
      <path d="M5.5 0 L8.5 3 L0 0 L8.5 -3 Z" clip-path="url(#clipPath10)" transform="matrix(-1,0,0,-1,305.5,154)" stroke-linecap="square" stroke="none"/>
      <path fill="none" d="M5.5 0 L8.5 3 L0 0 L8.5 -3 Z" clip-path="url(#clipPath10)" transform="matrix(-1,0,0,-1,305.5,154)"/>
    </g>
    <g stroke-linecap="butt" text-rendering="geometricPrecision">
      <path fill="none" d="M320 154 L427.9 154" clip-path="url(#clipPath1)"/>
      <path d="M5.5 0 L8.5 3 L0 0 L8.5 -3 Z" clip-path="url(#clipPath11)" transform="matrix(-1,0,0,-1,433.4,154)" stroke-linecap="square" stroke="none"/>
      <path fill="none" d="M5.5 0 L8.5 3 L0 0 L8.5 -3 Z" clip-path="url(#clipPath11)" transform="matrix(-1,0,0,-1,433.4,154)"/>
    </g>
    <g fill="white" text-rendering="geometricPrecision" transform="translate(434.9,138) scale(48,48) matrix(0.0588,0,0,0.0588,0,0)" stroke="white">
      <rect x="0.5" width="16" height="16" y="0.5" clip-path="url(#clipPath13)" stroke="none"/>
      <rect stroke-linecap="butt" x="0.5" y="0.5" clip-path="url(#clipPath13)" fill="none" width="16" height="16" stroke="rgb(66,90,137)"/>
    </g>
    <g fill="rgb(66,90,137)" text-rendering="geometricPrecision" transform="matrix(2.8235,0,0,2.8235,434.9,138)" stroke-linecap="butt" stroke="rgb(66,90,137)">
      <path d="M10.23 3.56 L6.23 6.56 L8.41 6.56 L4.41 9.55 L6.59 9.55 L3.5 13.44 L9.86 9.55 L7.68 9.55 L11.68 6.56 L9.5 6.56 L13.5 3.56 L10.23 3.56 Z" fill-rule="evenodd" clip-path="url(#clipPath13)" stroke="none"/>
    </g>
    <g fill="white" text-rendering="geometricPrecision" transform="translate(692.7,49) scale(48,48) matrix(0.0588,0,0,0.0588,0,0)" stroke="white">
      <rect x="0.5" width="16" height="16" y="0.5" clip-path="url(#clipPath15)" stroke="none"/>
      <rect stroke-linecap="butt" x="0.5" y="0.5" clip-path="url(#clipPath15)" fill="none" width="16" height="16" stroke="rgb(66,90,137)"/>
    </g>
    <g fill="rgb(66,90,137)" text-rendering="geometricPrecision" transform="matrix(2.8235,0,0,2.8235,692.7,49)" stroke-linecap="butt" stroke="rgb(66,90,137)">
      <path d="M10.23 3.56 L6.23 6.56 L8.41 6.56 L4.41 9.55 L6.59 9.55 L3.5 13.44 L9.86 9.55 L7.68 9.55 L11.68 6.56 L9.5 6.56 L13.5 3.56 L10.23 3.56 Z" fill-rule="evenodd" clip-path="url(#clipPath15)" stroke="none"/>
    </g>
    <g fill="white" text-rendering="geometricPrecision" transform="translate(82.5,99) scale(32,32.8364) translate(0,-0.1802) matrix(0.0581,0,0,0.0581,0,0.1802)" stroke="white">
      <path d="M11.55 10.5 L0.5 10.5 L0.5 0.5 L11.55 0.5 L16.5 5.5 L11.55 10.5 Z" stroke="none" clip-path="url(#clipPath17)"/>
      <path fill="none" d="M11.55 10.5 L0.5 10.5 L0.5 0.5 L11.55 0.5 L16.5 5.5 L11.55 10.5 Z" clip-path="url(#clipPath17)" stroke-linecap="butt" stroke="rgb(66,90,137)"/>
    </g>
    <g fill="white" text-rendering="geometricPrecision" transform="translate(82.5,232.5) scale(32,32.8364) translate(0,-0.1802) matrix(0.0581,0,0,0.0581,0,0.1802)" stroke="white">
      <path d="M11.55 10.5 L0.5 10.5 L0.5 0.5 L11.55 0.5 L16.5 5.5 L11.55 10.5 Z" stroke="none" clip-path="url(#clipPath17)"/>
      <path fill="none" d="M11.55 10.5 L0.5 10.5 L0.5 0.5 L11.55 0.5 L16.5 5.5 L11.55 10.5 Z" clip-path="url(#clipPath17)" stroke-linecap="butt" stroke="rgb(66,90,137)"/>
    </g>
    <g fill="white" text-rendering="geometricPrecision" transform="translate(995.7,62.5) scale(32,32.8364) translate(0,-0.1802) matrix(0.0581,0,0,0.0581,0,0.1802)" stroke="white">
      <path d="M11.55 10.5 L0.5 10.5 L0.5 0.5 L11.55 0.5 L16.5 5.5 L11.55 10.5 Z" stroke="none" clip-path="url(#clipPath17)"/>
      <path fill="none" d="M11.55 10.5 L0.5 10.5 L0.5 0.5 L11.55 0.5 L16.5 5.5 L11.55 10.5 Z" clip-path="url(#clipPath17)" stroke-linecap="butt" stroke="rgb(66,90,137)"/>
    </g>
    <g fill="white" text-rendering="geometricPrecision" transform="translate(279,50) scale(28.8089,30) translate(-0.2747,0) matrix(0.0625,0,0,0.0625,0.2741,0)" stroke="white">
      <rect x="1.85" width="3.52" height="12.28" y="1.86" clip-path="url(#clipPath21)" stroke="none"/>
    </g>
    <g fill="rgb(66,90,137)" text-rendering="geometricPrecision" transform="matrix(0,1.875,-1.8006,0,303.5776,50.5063)" stroke="rgb(66,90,137)">
      <rect x="6.17" width="1.06" height="1.06" y="6.43" clip-path="url(#clipPath22)" stroke="none"/>
    </g>
    <g fill="rgb(66,90,137)" text-rendering="geometricPrecision" transform="matrix(0,1.875,-1.8006,0,307.3047,54.3875)" stroke="rgb(66,90,137)">
      <rect x="6.17" width="1.06" height="1.06" y="8.5" clip-path="url(#clipPath23)" stroke="none"/>
    </g>
    <g fill="rgb(66,90,137)" text-rendering="geometricPrecision" transform="matrix(0,1.875,-1.8006,0,292.4861,62.0562)" stroke="rgb(66,90,137)">
      <rect x="0" width="1.06" height="1.06" y="6.43" clip-path="url(#clipPath24)" stroke="none"/>
    </g>
    <g fill="rgb(66,90,137)" text-rendering="geometricPrecision" transform="matrix(0,1.875,-1.8006,0,296.2133,65.9375)" stroke="rgb(66,90,137)">
      <rect x="0" width="1.06" height="1.06" y="8.5" clip-path="url(#clipPath25)" stroke="none"/>
    </g>
    <g fill="rgb(66,90,137)" text-rendering="geometricPrecision" transform="matrix(1.8006,0,0,1.875,278.982,50)" stroke="rgb(66,90,137)">
      <path d="M6.19 15 L1 15 L1 1 L6.19 1 ZM1.85 14.18 L5.38 14.18 L5.38 1.86 L1.85 1.86 Z" stroke="none" clip-path="url(#clipPath21)"/>
    </g>
    <g fill="rgb(66,90,137)" text-rendering="geometricPrecision" transform="matrix(-1.8006,0,0,-1.875,292,80)" stroke="rgb(66,90,137)">
      <rect x="3.08" width="1.06" height="10.64" y="2.68" clip-path="url(#clipPath26)" stroke="none"/>
    </g>
    <g fill="rgb(66,90,137)" text-rendering="geometricPrecision" transform="matrix(1.8006,0,0,1.875,278.982,50)" stroke="rgb(66,90,137)">
      <rect x="2.04" width="1.06" height="1.06" y="0" clip-path="url(#clipPath21)" stroke="none"/>
    </g>
    <g fill="rgb(66,90,137)" text-rendering="geometricPrecision" transform="matrix(1.8006,0,0,1.875,278.982,50)" stroke="rgb(66,90,137)">
      <rect x="4.11" width="1.06" height="1.06" y="0" clip-path="url(#clipPath21)" stroke="none"/>
    </g>
    <g fill="rgb(66,90,137)" text-rendering="geometricPrecision" transform="matrix(1.8006,0,0,1.875,278.982,50)" stroke="rgb(66,90,137)">
      <rect x="2.04" width="1.06" height="1.06" y="14.94" clip-path="url(#clipPath21)" stroke="none"/>
    </g>
    <g fill="rgb(66,90,137)" text-rendering="geometricPrecision" transform="matrix(1.8006,0,0,1.875,278.982,50)" stroke="rgb(66,90,137)">
      <rect x="4.11" width="1.06" height="1.06" y="14.94" clip-path="url(#clipPath21)" stroke="none"/>
    </g>
    <g fill="white" text-rendering="geometricPrecision" transform="translate(585.9,147) scale(28.8089,30) translate(-0.2747,0) matrix(0.0625,0,0,0.0625,0.2741,0)" stroke="white">
      <rect x="1.85" width="3.52" height="12.28" y="1.86" clip-path="url(#clipPath21)" stroke="none"/>
    </g>
    <g fill="rgb(66,90,137)" text-rendering="geometricPrecision" transform="matrix(0,1.875,-1.8006,0,610.4776,147.5063)" stroke="rgb(66,90,137)">
      <rect x="6.17" width="1.06" height="1.06" y="6.43" clip-path="url(#clipPath22)" stroke="none"/>
    </g>
    <g fill="rgb(66,90,137)" text-rendering="geometricPrecision" transform="matrix(0,1.875,-1.8006,0,614.2047,151.3875)" stroke="rgb(66,90,137)">
      <rect x="6.17" width="1.06" height="1.06" y="8.5" clip-path="url(#clipPath23)" stroke="none"/>
    </g>
    <g fill="rgb(66,90,137)" text-rendering="geometricPrecision" transform="matrix(0,1.875,-1.8006,0,599.3861,159.0562)" stroke="rgb(66,90,137)">
      <rect x="0" width="1.06" height="1.06" y="6.43" clip-path="url(#clipPath24)" stroke="none"/>
    </g>
    <g fill="rgb(66,90,137)" text-rendering="geometricPrecision" transform="matrix(0,1.875,-1.8006,0,603.1133,162.9375)" stroke="rgb(66,90,137)">
      <rect x="0" width="1.06" height="1.06" y="8.5" clip-path="url(#clipPath25)" stroke="none"/>
    </g>
    <g fill="rgb(66,90,137)" text-rendering="geometricPrecision" transform="matrix(1.8006,0,0,1.875,585.882,147)" stroke="rgb(66,90,137)">
      <path d="M6.19 15 L1 15 L1 1 L6.19 1 ZM1.85 14.18 L5.38 14.18 L5.38 1.86 L1.85 1.86 Z" stroke="none" clip-path="url(#clipPath21)"/>
    </g>
    <g fill="rgb(66,90,137)" text-rendering="geometricPrecision" transform="matrix(-1.8006,0,0,-1.875,598.9,177)" stroke="rgb(66,90,137)">
      <rect x="3.08" width="1.06" height="10.64" y="2.68" clip-path="url(#clipPath26)" stroke="none"/>
    </g>
    <g fill="rgb(66,90,137)" text-rendering="geometricPrecision" transform="matrix(1.8006,0,0,1.875,585.882,147)" stroke="rgb(66,90,137)">
      <rect x="2.04" width="1.06" height="1.06" y="0" clip-path="url(#clipPath21)" stroke="none"/>
    </g>
    <g fill="rgb(66,90,137)" text-rendering="geometricPrecision" transform="matrix(1.8006,0,0,1.875,585.882,147)" stroke="rgb(66,90,137)">
      <rect x="4.11" width="1.06" height="1.06" y="0" clip-path="url(#clipPath21)" stroke="none"/>
    </g>
    <g fill="rgb(66,90,137)" text-rendering="geometricPrecision" transform="matrix(1.8006,0,0,1.875,585.882,147)" stroke="rgb(66,90,137)">
      <rect x="2.04" width="1.06" height="1.06" y="14.94" clip-path="url(#clipPath21)" stroke="none"/>
    </g>
    <g fill="rgb(66,90,137)" text-rendering="geometricPrecision" transform="matrix(1.8006,0,0,1.875,585.882,147)" stroke="rgb(66,90,137)">
      <rect x="4.11" width="1.06" height="1.06" y="14.94" clip-path="url(#clipPath21)" stroke="none"/>
    </g>
    <g fill="white" text-rendering="geometricPrecision" transform="translate(843.7,58) scale(28.8089,30) translate(-0.2747,0) matrix(0.0625,0,0,0.0625,0.2741,0)" stroke="white">
      <rect x="1.85" width="3.52" height="12.28" y="1.86" clip-path="url(#clipPath21)" stroke="none"/>
    </g>
    <g fill="rgb(66,90,137)" text-rendering="geometricPrecision" transform="matrix(0,1.875,-1.8006,0,868.2776,58.5063)" stroke="rgb(66,90,137)">
      <rect x="6.17" width="1.06" height="1.06" y="6.43" clip-path="url(#clipPath22)" stroke="none"/>
    </g>
    <g fill="rgb(66,90,137)" text-rendering="geometricPrecision" transform="matrix(0,1.875,-1.8006,0,872.0047,62.3875)" stroke="rgb(66,90,137)">
      <rect x="6.17" width="1.06" height="1.06" y="8.5" clip-path="url(#clipPath23)" stroke="none"/>
    </g>
    <g fill="rgb(66,90,137)" text-rendering="geometricPrecision" transform="matrix(0,1.875,-1.8006,0,857.1861,70.0562)" stroke="rgb(66,90,137)">
      <rect x="0" width="1.06" height="1.06" y="6.43" clip-path="url(#clipPath24)" stroke="none"/>
    </g>
    <g fill="rgb(66,90,137)" text-rendering="geometricPrecision" transform="matrix(0,1.875,-1.8006,0,860.9133,73.9375)" stroke="rgb(66,90,137)">
      <rect x="0" width="1.06" height="1.06" y="8.5" clip-path="url(#clipPath25)" stroke="none"/>
    </g>
    <g fill="rgb(66,90,137)" text-rendering="geometricPrecision" transform="matrix(1.8006,0,0,1.875,843.682,58)" stroke="rgb(66,90,137)">
      <path d="M6.19 15 L1 15 L1 1 L6.19 1 ZM1.85 14.18 L5.38 14.18 L5.38 1.86 L1.85 1.86 Z" stroke="none" clip-path="url(#clipPath21)"/>
    </g>
    <g fill="rgb(66,90,137)" text-rendering="geometricPrecision" transform="matrix(-1.8006,0,0,-1.875,856.7,88)" stroke="rgb(66,90,137)">
      <rect x="3.08" width="1.06" height="10.64" y="2.68" clip-path="url(#clipPath26)" stroke="none"/>
    </g>
    <g fill="rgb(66,90,137)" text-rendering="geometricPrecision" transform="matrix(1.8006,0,0,1.875,843.682,58)" stroke="rgb(66,90,137)">
      <rect x="2.04" width="1.06" height="1.06" y="0" clip-path="url(#clipPath21)" stroke="none"/>
    </g>
    <g fill="rgb(66,90,137)" text-rendering="geometricPrecision" transform="matrix(1.8006,0,0,1.875,843.682,58)" stroke="rgb(66,90,137)">
      <rect x="4.11" width="1.06" height="1.06" y="0" clip-path="url(#clipPath21)" stroke="none"/>
    </g>
    <g fill="rgb(66,90,137)" text-rendering="geometricPrecision" transform="matrix(1.8006,0,0,1.875,843.682,58)" stroke="rgb(66,90,137)">
      <rect x="2.04" width="1.06" height="1.06" y="14.94" clip-path="url(#clipPath21)" stroke="none"/>
    </g>
    <g fill="rgb(66,90,137)" text-rendering="geometricPrecision" transform="matrix(1.8006,0,0,1.875,843.682,58)" stroke="rgb(66,90,137)">
      <rect x="4.11" width="1.06" height="1.06" y="14.94" clip-path="url(#clipPath21)" stroke="none"/>
    </g>
    <g fill="white" text-rendering="geometricPrecision" transform="translate(307,139) scale(28.8089,30) translate(-0.2747,0) matrix(0.0625,0,0,0.0625,0.2741,0)" stroke="white">
      <rect x="1.85" width="3.52" height="12.28" y="1.86" clip-path="url(#clipPath30)" stroke="none"/>
    </g>
    <g fill="rgb(66,90,137)" text-rendering="geometricPrecision" transform="matrix(0,1.875,-1.8006,0,331.5776,139.5063)" stroke="rgb(66,90,137)">
      <rect x="6.17" width="1.06" height="1.06" y="6.43" clip-path="url(#clipPath22)" stroke="none"/>
    </g>
    <g fill="rgb(66,90,137)" text-rendering="geometricPrecision" transform="matrix(0,1.875,-1.8006,0,335.3047,143.3875)" stroke="rgb(66,90,137)">
      <rect x="6.17" width="1.06" height="1.06" y="8.5" clip-path="url(#clipPath23)" stroke="none"/>
    </g>
    <g fill="rgb(66,90,137)" text-rendering="geometricPrecision" transform="matrix(0,1.875,-1.8006,0,320.4861,151.0562)" stroke="rgb(66,90,137)">
      <rect x="0" width="1.06" height="1.06" y="6.43" clip-path="url(#clipPath24)" stroke="none"/>
    </g>
    <g fill="rgb(66,90,137)" text-rendering="geometricPrecision" transform="matrix(0,1.875,-1.8006,0,324.2133,154.9375)" stroke="rgb(66,90,137)">
      <rect x="0" width="1.06" height="1.06" y="8.5" clip-path="url(#clipPath25)" stroke="none"/>
    </g>
    <g fill="rgb(66,90,137)" text-rendering="geometricPrecision" transform="matrix(1.8006,0,0,1.875,306.982,139)" stroke="rgb(66,90,137)">
      <path d="M6.19 15 L1 15 L1 1 L6.19 1 ZM1.85 14.18 L5.38 14.18 L5.38 1.86 L1.85 1.86 Z" stroke="none" clip-path="url(#clipPath30)"/>
    </g>
    <g fill="rgb(66,90,137)" text-rendering="geometricPrecision" transform="matrix(-1.8006,0,0,-1.875,320,169)" stroke="rgb(66,90,137)">
      <rect x="3.08" width="1.06" height="10.64" y="2.68" clip-path="url(#clipPath26)" stroke="none"/>
    </g>
    <g fill="rgb(66,90,137)" text-rendering="geometricPrecision" transform="matrix(1.8006,0,0,1.875,306.982,139)" stroke="rgb(66,90,137)">
      <rect x="2.04" width="1.06" height="1.06" y="0" clip-path="url(#clipPath30)" stroke="none"/>
    </g>
    <g fill="rgb(66,90,137)" text-rendering="geometricPrecision" transform="matrix(1.8006,0,0,1.875,306.982,139)" stroke="rgb(66,90,137)">
      <rect x="4.11" width="1.06" height="1.06" y="0" clip-path="url(#clipPath30)" stroke="none"/>
    </g>
    <g fill="rgb(66,90,137)" text-rendering="geometricPrecision" transform="matrix(1.8006,0,0,1.875,306.982,139)" stroke="rgb(66,90,137)">
      <rect x="2.04" width="1.06" height="1.06" y="14.94" clip-path="url(#clipPath30)" stroke="none"/>
    </g>
    <g fill="rgb(66,90,137)" text-rendering="geometricPrecision" transform="matrix(1.8006,0,0,1.875,306.982,139)" stroke="rgb(66,90,137)">
      <rect x="4.11" width="1.06" height="1.06" y="14.94" clip-path="url(#clipPath30)" stroke="none"/>
    </g>
    <g fill="white" text-rendering="geometricPrecision" transform="translate(279,228) scale(28.8089,30) translate(-0.2747,0) matrix(0.0625,0,0,0.0625,0.2741,0)" stroke="white">
      <rect x="1.85" width="3.52" height="12.28" y="1.86" clip-path="url(#clipPath21)" stroke="none"/>
    </g>
    <g fill="rgb(66,90,137)" text-rendering="geometricPrecision" transform="matrix(0,1.875,-1.8006,0,303.5776,228.5063)" stroke="rgb(66,90,137)">
      <rect x="6.17" width="1.06" height="1.06" y="6.43" clip-path="url(#clipPath22)" stroke="none"/>
    </g>
    <g fill="rgb(66,90,137)" text-rendering="geometricPrecision" transform="matrix(0,1.875,-1.8006,0,307.3047,232.3875)" stroke="rgb(66,90,137)">
      <rect x="6.17" width="1.06" height="1.06" y="8.5" clip-path="url(#clipPath23)" stroke="none"/>
    </g>
    <g fill="rgb(66,90,137)" text-rendering="geometricPrecision" transform="matrix(0,1.875,-1.8006,0,292.4861,240.0562)" stroke="rgb(66,90,137)">
      <rect x="0" width="1.06" height="1.06" y="6.43" clip-path="url(#clipPath24)" stroke="none"/>
    </g>
    <g fill="rgb(66,90,137)" text-rendering="geometricPrecision" transform="matrix(0,1.875,-1.8006,0,296.2133,243.9375)" stroke="rgb(66,90,137)">
      <rect x="0" width="1.06" height="1.06" y="8.5" clip-path="url(#clipPath25)" stroke="none"/>
    </g>
    <g fill="rgb(66,90,137)" text-rendering="geometricPrecision" transform="matrix(1.8006,0,0,1.875,278.982,228)" stroke="rgb(66,90,137)">
      <path d="M6.19 15 L1 15 L1 1 L6.19 1 ZM1.85 14.18 L5.38 14.18 L5.38 1.86 L1.85 1.86 Z" stroke="none" clip-path="url(#clipPath21)"/>
    </g>
    <g fill="rgb(66,90,137)" text-rendering="geometricPrecision" transform="matrix(-1.8006,0,0,-1.875,292,258)" stroke="rgb(66,90,137)">
      <rect x="3.08" width="1.06" height="10.64" y="2.68" clip-path="url(#clipPath26)" stroke="none"/>
    </g>
    <g fill="rgb(66,90,137)" text-rendering="geometricPrecision" transform="matrix(1.8006,0,0,1.875,278.982,228)" stroke="rgb(66,90,137)">
      <rect x="2.04" width="1.06" height="1.06" y="0" clip-path="url(#clipPath21)" stroke="none"/>
    </g>
    <g fill="rgb(66,90,137)" text-rendering="geometricPrecision" transform="matrix(1.8006,0,0,1.875,278.982,228)" stroke="rgb(66,90,137)">
      <rect x="4.11" width="1.06" height="1.06" y="0" clip-path="url(#clipPath21)" stroke="none"/>
    </g>
    <g fill="rgb(66,90,137)" text-rendering="geometricPrecision" transform="matrix(1.8006,0,0,1.875,278.982,228)" stroke="rgb(66,90,137)">
      <rect x="2.04" width="1.06" height="1.06" y="14.94" clip-path="url(#clipPath21)" stroke="none"/>
    </g>
    <g fill="rgb(66,90,137)" text-rendering="geometricPrecision" transform="matrix(1.8006,0,0,1.875,278.982,228)" stroke="rgb(66,90,137)">
      <rect x="4.11" width="1.06" height="1.06" y="14.94" clip-path="url(#clipPath21)" stroke="none"/>
    </g>
    <g fill="rgb(50,78,136)" text-rendering="geometricPrecision" stroke="rgb(50,78,136)">
      <circle r="2.5" clip-path="url(#clipPath1)" cx="434.9" cy="154" stroke="none"/>
    </g>
    <g fill="rgb(50,78,136)" text-rendering="geometricPrecision" stroke="rgb(50,78,136)">
      <circle r="2.5" clip-path="url(#clipPath1)" cx="434.9" cy="170" stroke="none"/>
      <circle r="2.5" clip-path="url(#clipPath1)" cx="482.9" cy="162" stroke="none"/>
      <circle r="2.5" clip-path="url(#clipPath1)" cx="692.7" cy="65" stroke="none"/>
      <circle r="2.5" clip-path="url(#clipPath1)" cx="692.7" cy="81" stroke="none"/>
      <circle r="2.5" clip-path="url(#clipPath1)" cx="740.7" cy="73" stroke="none"/>
      <circle r="2.5" clip-path="url(#clipPath1)" cx="114.5" cy="109.5" stroke="none"/>
      <circle r="2.5" clip-path="url(#clipPath1)" cx="114.5" cy="243" stroke="none"/>
      <circle r="2.5" clip-path="url(#clipPath1)" cx="995.7" cy="73" stroke="none"/>
    </g>
    <g text-rendering="geometricPrecision" font-size="18" font-family="sans-serif" transform="translate(434.9,112)">
      <text x="1" xml:space="preserve" y="18" clip-path="url(#clipPath33)" stroke="none">k_cvt</text>
    </g>
    <g text-rendering="geometricPrecision" font-size="18" font-family="sans-serif" transform="translate(411.9,188)">
      <text x="1" xml:space="preserve" y="18" clip-path="url(#clipPath35)" stroke="none">kernel_cvt</text>
    </g>
    <g text-rendering="geometricPrecision" font-size="18" font-family="sans-serif" transform="translate(672.7,23)">
      <text x="1" xml:space="preserve" y="18" clip-path="url(#clipPath37)" stroke="none">k_overlay</text>
    </g>
    <g text-rendering="geometricPrecision" font-size="18" font-family="sans-serif" transform="translate(649.7,99)">
      <text x="1" xml:space="preserve" y="18" clip-path="url(#clipPath39)" stroke="none">kernel_overlay</text>
    </g>
    <g text-rendering="geometricPrecision" font-size="18" font-family="sans-serif" transform="translate(2,73)">
      <text x="1" xml:space="preserve" y="18" clip-path="url(#clipPath41)" stroke="none">Input: s0 (</text>
      <text fill="rgb(8,87,248)" x="91" xml:space="preserve" y="18" clip-path="url(#clipPath41)" stroke="none">data/s0.txt</text>
      <text x="185" xml:space="preserve" y="18" clip-path="url(#clipPath41)" stroke="none">)</text>
    </g>
    <g text-rendering="geometricPrecision" font-size="18" font-family="sans-serif" transform="translate(2,206.5)">
      <text x="1" xml:space="preserve" y="18" clip-path="url(#clipPath41)" stroke="none">Input: s1 (</text>
      <text fill="rgb(8,87,248)" x="91" xml:space="preserve" y="18" clip-path="url(#clipPath41)" stroke="none">data/s1.txt</text>
      <text x="185" xml:space="preserve" y="18" clip-path="url(#clipPath41)" stroke="none">)</text>
    </g>
    <g text-rendering="geometricPrecision" font-size="18" font-family="sans-serif" transform="translate(890.2,36.5)">
      <text x="1" xml:space="preserve" y="18" clip-path="url(#clipPath44)" stroke="none">Output: s2 (</text>
      <text fill="rgb(8,87,248)" x="106" xml:space="preserve" y="18" clip-path="url(#clipPath44)" stroke="none">data/s2_act.txt</text>
      <text x="235" xml:space="preserve" y="18" clip-path="url(#clipPath44)" stroke="none">)</text>
    </g>
    <g text-rendering="geometricPrecision" font-size="18" font-family="sans-serif" transform="translate(256.5,2)">
      <text x="1" xml:space="preserve" y="18" clip-path="url(#clipPath46)" stroke="none">buf0</text>
      <text x="40" xml:space="preserve" y="18" clip-path="url(#clipPath46)" stroke="none"> </text>
      <text x="1" xml:space="preserve" y="40" clip-path="url(#clipPath46)" stroke="none">buf0d</text>
      <text x="51" xml:space="preserve" y="40" clip-path="url(#clipPath46)" stroke="none"> </text>
    </g>
    <g text-rendering="geometricPrecision" font-size="18" font-family="sans-serif" transform="translate(563.4,99)">
      <text x="1" xml:space="preserve" y="18" clip-path="url(#clipPath46)" stroke="none">buf3</text>
      <text x="40" xml:space="preserve" y="18" clip-path="url(#clipPath46)" stroke="none"> </text>
      <text x="1" xml:space="preserve" y="40" clip-path="url(#clipPath46)" stroke="none">buf3d</text>
      <text x="51" xml:space="preserve" y="40" clip-path="url(#clipPath46)" stroke="none"> </text>
    </g>
    <g text-rendering="geometricPrecision" font-size="18" font-family="sans-serif" transform="translate(824.2,10)">
      <text x="1" xml:space="preserve" y="18" clip-path="url(#clipPath49)" stroke="none">buf4d</text>
      <text x="51" xml:space="preserve" y="18" clip-path="url(#clipPath49)" stroke="none"> </text>
      <text x="1" xml:space="preserve" y="40" clip-path="url(#clipPath49)" stroke="none">buf4</text>
      <text x="40" xml:space="preserve" y="40" clip-path="url(#clipPath49)" stroke="none"> </text>
    </g>
    <g text-rendering="geometricPrecision" font-size="18" font-family="sans-serif" transform="translate(284.5,91)">
      <text x="1" xml:space="preserve" y="18" clip-path="url(#clipPath46)" stroke="none">buf1</text>
      <text x="40" xml:space="preserve" y="18" clip-path="url(#clipPath46)" stroke="none"> </text>
      <text x="1" xml:space="preserve" y="40" clip-path="url(#clipPath46)" stroke="none">buf1d</text>
      <text x="51" xml:space="preserve" y="40" clip-path="url(#clipPath46)" stroke="none"> </text>
    </g>
    <g text-rendering="geometricPrecision" font-size="18" font-family="sans-serif" transform="translate(256.5,180)">
      <text x="1" xml:space="preserve" y="18" clip-path="url(#clipPath46)" stroke="none">buf2</text>
      <text x="40" xml:space="preserve" y="18" clip-path="url(#clipPath46)" stroke="none"> </text>
      <text x="1" xml:space="preserve" y="40" clip-path="url(#clipPath46)" stroke="none">buf2d</text>
      <text x="51" xml:space="preserve" y="40" clip-path="url(#clipPath46)" stroke="none"> </text>
    </g>
    <g font-family="sans-serif" text-rendering="geometricPrecision" transform="translate(397.9,137.8)">
      <text x="2" xml:space="preserve" y="13.1387" clip-path="url(#clipPath52)" stroke="none">w_s0</text>
    </g>
    <g font-family="sans-serif" text-rendering="geometricPrecision" transform="translate(397.9,153.8)">
      <text x="2" xml:space="preserve" y="13.1387" clip-path="url(#clipPath53)" stroke="none">w_s1</text>
    </g>
    <g font-family="sans-serif" text-rendering="geometricPrecision" transform="translate(485.9,146.8)">
      <text x="2" xml:space="preserve" y="13.1387" clip-path="url(#clipPath54)" stroke="none">w_s2</text>
    </g>
    <g font-family="sans-serif" text-rendering="geometricPrecision" transform="translate(655.7,48.8)">
      <text x="2" xml:space="preserve" y="13.1387" clip-path="url(#clipPath55)" stroke="none">w_s0</text>
    </g>
    <g font-family="sans-serif" text-rendering="geometricPrecision" transform="translate(655.7,64.8)">
      <text x="2" xml:space="preserve" y="13.1387" clip-path="url(#clipPath56)" stroke="none">w_s1</text>
    </g>
    <g font-family="sans-serif" text-rendering="geometricPrecision" transform="translate(743.7,57.8)">
      <text x="2" xml:space="preserve" y="13.1387" clip-path="url(#clipPath57)" stroke="none">w_s2</text>
    </g>
    <g font-family="sans-serif" text-rendering="geometricPrecision" transform="translate(117.5,94.3)">
      <text x="2" xml:space="preserve" y="13.1387" clip-path="url(#clipPath58)" stroke="none">src[0]</text>
    </g>
    <g font-family="sans-serif" text-rendering="geometricPrecision" transform="translate(117.5,227.8)">
      <text x="2" xml:space="preserve" y="13.1387" clip-path="url(#clipPath59)" stroke="none">src[1]</text>
    </g>
    <g font-family="sans-serif" text-rendering="geometricPrecision" transform="translate(946.7,56.8)">
      <text x="2" xml:space="preserve" y="13.1387" clip-path="url(#clipPath60)" stroke="none">sink[0]</text>
    </g>
    <g fill="rgb(50,78,136)" text-rendering="geometricPrecision" font-family="sans-serif" transform="translate(228,66)" stroke="rgb(50,78,136)">
      <text x="2" xml:space="preserve" y="13.1387" clip-path="url(#clipPath61)" stroke="none">Stream</text>
    </g>
    <g fill="rgb(50,78,136)" text-rendering="geometricPrecision" font-family="sans-serif" transform="translate(295,66)" stroke="rgb(50,78,136)">
      <text x="2" xml:space="preserve" y="13.1387" clip-path="url(#clipPath62)" stroke="none">Memory</text>
    </g>
    <g fill="rgb(50,78,136)" text-rendering="geometricPrecision" font-family="sans-serif" transform="translate(529.9,163)" stroke="rgb(50,78,136)">
      <text x="2" xml:space="preserve" y="13.1387" clip-path="url(#clipPath63)" stroke="none">Memory</text>
    </g>
    <g fill="rgb(50,78,136)" text-rendering="geometricPrecision" font-family="sans-serif" transform="translate(601.9,163)" stroke="rgb(50,78,136)">
      <text x="2" xml:space="preserve" y="13.1387" clip-path="url(#clipPath64)" stroke="none">Memory</text>
    </g>
    <g fill="rgb(50,78,136)" text-rendering="geometricPrecision" font-family="sans-serif" transform="translate(787.7,74)" stroke="rgb(50,78,136)">
      <text x="2" xml:space="preserve" y="13.1387" clip-path="url(#clipPath65)" stroke="none">Memory</text>
    </g>
    <g fill="rgb(50,78,136)" text-rendering="geometricPrecision" font-family="sans-serif" transform="translate(859.7,74)" stroke="rgb(50,78,136)">
      <text x="2" xml:space="preserve" y="13.1387" clip-path="url(#clipPath66)" stroke="none">Stream</text>
    </g>
    <g fill="rgb(50,78,136)" text-rendering="geometricPrecision" font-family="sans-serif" transform="translate(256,155)" stroke="rgb(50,78,136)">
      <text x="2" xml:space="preserve" y="13.1387" clip-path="url(#clipPath67)" stroke="none">Stream</text>
    </g>
    <g fill="rgb(50,78,136)" text-rendering="geometricPrecision" font-family="sans-serif" transform="translate(323,155)" stroke="rgb(50,78,136)">
      <text x="2" xml:space="preserve" y="13.1387" clip-path="url(#clipPath68)" stroke="none">Memory</text>
    </g>
    <g fill="rgb(50,78,136)" text-rendering="geometricPrecision" font-family="sans-serif" transform="translate(228,244)" stroke="rgb(50,78,136)">
      <text x="2" xml:space="preserve" y="13.1387" clip-path="url(#clipPath69)" stroke="none">Stream</text>
    </g>
    <g fill="rgb(50,78,136)" text-rendering="geometricPrecision" font-family="sans-serif" transform="translate(295,244)" stroke="rgb(50,78,136)">
      <text x="2" xml:space="preserve" y="13.1387" clip-path="url(#clipPath70)" stroke="none">Memory</text>
    </g>
  </g>
</svg>
